<svg width="15" height="15" viewBox="0 0 15 15" fill="none" xmlns="http://www.w3.org/2000/svg">
<g id="mdi:food" clip-path="url(#clip0_630_6511)">
<path id="Vector" d="M11.2875 14.375H12.325C12.85 14.375 13.2812 13.9687 13.3437 13.4562L14.375 3.15625H11.25V0.625H10.0187V3.15625H6.9125L7.1 4.61875C8.16875 4.9125 9.16875 5.44375 9.76875 6.03125C10.6687 6.91875 11.2875 7.8375 11.2875 9.3375V14.375ZM0.625 13.75V13.125H10.0187V13.75C10.0187 14.0875 9.7375 14.375 9.375 14.375H1.25C0.90625 14.375 0.625 14.0875 0.625 13.75ZM10.0187 9.375C10.0187 4.375 0.625 4.375 0.625 9.375H10.0187ZM0.625 10.625H10V11.875H0.625V10.625Z" fill="white"/>
</g>
<defs>
<clipPath id="clip0_630_6511">
<rect width="15" height="15" fill="white"/>
</clipPath>
</defs>
</svg>
