<svg width="21" height="21" viewBox="0 0 21 21" fill="none" xmlns="http://www.w3.org/2000/svg">
<g id="ic:round-check-box">
<path id="Vector" d="M16.625 2.625H4.375C3.4125 2.625 2.625 3.4125 2.625 4.375V16.625C2.625 17.5875 3.4125 18.375 4.375 18.375H16.625C17.5875 18.375 18.375 17.5875 18.375 16.625V4.375C18.375 3.4125 17.5875 2.625 16.625 2.625ZM9.37125 14.2538C9.2903 14.3349 9.19415 14.3992 9.0883 14.4431C8.98244 14.487 8.86897 14.5096 8.75437 14.5096C8.63978 14.5096 8.52631 14.487 8.42045 14.4431C8.3146 14.3992 8.21845 14.3349 8.1375 14.2538L4.99625 11.1125C4.91524 11.0315 4.85098 10.9353 4.80714 10.8295C4.7633 10.7236 4.74073 10.6102 4.74073 10.4956C4.74073 10.3811 4.7633 10.2676 4.80714 10.1618C4.85098 10.0559 4.91524 9.95976 4.99625 9.87875C5.07726 9.79774 5.17343 9.73348 5.27927 9.68964C5.38512 9.6458 5.49856 9.62323 5.61312 9.62323C5.72769 9.62323 5.84113 9.6458 5.94698 9.68964C6.05282 9.73348 6.14899 9.79774 6.23 9.87875L8.75 12.3988L14.77 6.37875C14.9336 6.21514 15.1555 6.12323 15.3869 6.12323C15.6182 6.12323 15.8401 6.21514 16.0038 6.37875C16.1674 6.54236 16.2593 6.76425 16.2593 6.99563C16.2593 7.227 16.1674 7.44889 16.0038 7.6125L9.37125 14.2538Z" fill="#FEC23D"/>
</g>
</svg>
