<svg width="26" height="35" viewBox="0 0 26 35" fill="none" xmlns="http://www.w3.org/2000/svg">
<g clip-path="url(#clip0_777_7191)">
<path d="M26 13.125C26 19.0996 18.0781 29.7363 14.6047 34.125C13.7719 35.1709 12.2281 35.1709 11.3953 34.125C7.92188 29.7363 0 19.0996 0 13.125C0 5.87891 5.82292 0 13 0C20.1771 0 26 5.87891 26 13.125Z" fill="#333333"/>
<path d="M11.6875 15.2083H13.3125V13.3125H15.2083V11.6875H13.3125V9.79167H11.6875V11.6875H9.79167V13.3125H11.6875V15.2083ZM8.70833 17.375C8.41042 17.375 8.15529 17.2688 7.94296 17.0565C7.73063 16.8442 7.62464 16.5892 7.625 16.2917V8.70833C7.625 8.41042 7.73117 8.15529 7.9435 7.94296C8.15583 7.73063 8.41078 7.62464 8.70833 7.625H16.2917C16.5896 7.625 16.8447 7.73117 17.057 7.9435C17.2694 8.15583 17.3754 8.41078 17.375 8.70833V16.2917C17.375 16.5896 17.2688 16.8447 17.0565 17.057C16.8442 17.2694 16.5892 17.3754 16.2917 17.375H8.70833Z" fill="white"/>
</g>
<defs>
<clipPath id="clip0_777_7191">
<rect width="26" height="35" fill="white"/>
</clipPath>
</defs>
</svg>
