<svg width="20" height="20" viewBox="0 0 20 20" fill="none" xmlns="http://www.w3.org/2000/svg">
<g id="mdi:dog">
<path id="Vector" d="M15.0002 3.33337C13.5752 3.33337 12.7085 3.60837 12.2085 3.84171C11.5668 3.52504 10.8335 3.33337 10.0002 3.33337C9.16683 3.33337 8.4335 3.52504 7.79183 3.84171C7.29183 3.60837 6.42516 3.33337 5.00016 3.33337C2.50016 3.33337 0.833496 10 0.833496 11.6667C0.833496 12.3584 1.9335 12.9917 3.45016 13.25C3.9835 15.1167 6.50016 16.5417 9.5835 16.6667V13.1C9.09183 12.7917 8.3335 12.2334 8.3335 11.6667C8.3335 10.8334 10.0002 10.8334 10.0002 10.8334C10.0002 10.8334 11.6668 10.8334 11.6668 11.6667C11.6668 12.2334 10.9085 12.7917 10.4168 13.1V16.6667C13.5002 16.5417 16.0168 15.1167 16.5502 13.25C18.0668 12.9917 19.1668 12.3584 19.1668 11.6667C19.1668 10 17.5002 3.33337 15.0002 3.33337ZM3.4585 11.5584C3.04183 11.4584 2.71683 11.3417 2.50016 11.25C2.7085 8.94171 4.3335 5.33337 5.04183 5.00004C5.49183 5.00004 5.8335 5.05004 6.14183 5.09171C4.39183 7.01671 3.70016 10.0334 3.4585 11.5584ZM7.50016 10C7.27915 10 7.06719 9.91224 6.91091 9.75596C6.75463 9.59968 6.66683 9.38772 6.66683 9.16671C6.66683 8.71671 7.04183 8.33337 7.50016 8.33337C7.72118 8.33337 7.93314 8.42117 8.08942 8.57745C8.2457 8.73373 8.3335 8.94569 8.3335 9.16671C8.3335 9.63337 7.9585 10 7.50016 10ZM12.5002 10C12.2791 10 12.0672 9.91224 11.9109 9.75596C11.7546 9.59968 11.6668 9.38772 11.6668 9.16671C11.6668 8.71671 12.0418 8.33337 12.5002 8.33337C12.7212 8.33337 12.9331 8.42117 13.0894 8.57745C13.2457 8.73373 13.3335 8.94569 13.3335 9.16671C13.3335 9.63337 12.9585 10 12.5002 10ZM16.5418 11.5584C16.3002 10.0334 15.6085 7.01671 13.8585 5.09171C14.1668 5.05004 14.5085 5.00004 14.9585 5.00004C15.6668 5.33337 17.2918 8.94171 17.5002 11.25C17.2918 11.3417 16.9668 11.4584 16.5418 11.5584Z" fill="#FEC23D"/>
</g>
</svg>
