<svg width="15" height="15" viewBox="0 0 15 15" fill="none" xmlns="http://www.w3.org/2000/svg">
<g id="map:cafe">
<path id="Vector" d="M11.1001 2.1001H2.7001V10.2001C2.7001 10.8601 3.2401 11.4001 3.9001 11.4001H9.9001C10.5601 11.4001 11.1001 10.8601 11.1001 10.2001V8.7001C12.9229 8.7001 14.4001 7.2226 14.4001 5.4001C14.4001 3.5776 12.9229 2.1001 11.1001 2.1001ZM11.1001 7.2001V3.6001C11.5775 3.6001 12.0353 3.78974 12.3729 4.12731C12.7105 4.46487 12.9001 4.92271 12.9001 5.4001C12.9001 5.87749 12.7105 6.33532 12.3729 6.67289C12.0353 7.01046 11.5775 7.2001 11.1001 7.2001ZM0.600098 12.0001V12.6904C0.600098 13.2592 1.2208 13.5001 1.9801 13.5001H13.0201C13.7791 13.5001 14.4001 13.2592 14.4001 12.6904V12.0001H0.600098Z" fill="#414141"/>
</g>
</svg>
