<svg width="26" height="35" viewBox="0 0 26 35" fill="none" xmlns="http://www.w3.org/2000/svg">
<g clip-path="url(#clip0_777_7061)">
<path d="M26 13.125C26 19.0996 18.0781 29.7363 14.6047 34.125C13.7719 35.1709 12.2281 35.1709 11.3953 34.125C7.92188 29.7363 0 19.0996 0 13.125C0 5.87891 5.82292 0 13 0C20.1771 0 26 5.87891 26 13.125Z" fill="#333333"/>
<g clip-path="url(#clip1_777_7061)">
<path d="M15.7826 18.4584H16.6817C17.1367 18.4584 17.5105 18.1063 17.5647 17.6622L18.4584 8.7355H15.7501V6.54175H14.683V8.7355H11.9909L12.1534 10.003C13.0797 10.2576 13.9463 10.718 14.4663 11.2272C15.2463 11.9963 15.7826 12.7926 15.7826 14.0926V18.4584ZM6.54175 17.9167V17.3751H14.683V17.9167C14.683 18.2092 14.4392 18.4584 14.1251 18.4584H7.08341C6.7855 18.4584 6.54175 18.2092 6.54175 17.9167ZM14.683 14.1251C14.683 9.79175 6.54175 9.79175 6.54175 14.1251H14.683ZM6.54175 15.2084H14.6667V16.2917H6.54175V15.2084Z" fill="white"/>
</g>
</g>
<defs>
<clipPath id="clip0_777_7061">
<rect width="26" height="35" fill="white"/>
</clipPath>
<clipPath id="clip1_777_7061">
<rect width="13" height="13" fill="white" transform="translate(6 6)"/>
</clipPath>
</defs>
</svg>
