<svg width="26" height="35" viewBox="0 0 26 35" fill="none" xmlns="http://www.w3.org/2000/svg">
<g clip-path="url(#clip0_777_7194)">
<path d="M26 13.125C26 19.0996 18.0781 29.7363 14.6047 34.125C13.7719 35.1709 12.2281 35.1709 11.3953 34.125C7.92188 29.7363 0 19.0996 0 13.125C0 5.87891 5.82292 0 13 0C20.1771 0 26 5.87891 26 13.125Z" fill="#333333"/>
<path d="M11.4469 9.63361C11.4469 9.15923 11.3062 8.6955 11.0427 8.30107C10.7791 7.90664 10.4045 7.59922 9.96627 7.41768C9.528 7.23615 9.04574 7.18865 8.58048 7.28119C8.11522 7.37374 7.68784 7.60218 7.35241 7.93761C7.01697 8.27305 6.78854 8.70042 6.69599 9.16568C6.60344 9.63095 6.65094 10.1132 6.83248 10.5515C7.01402 10.9897 7.32144 11.3643 7.71587 11.6279C8.1103 11.8914 8.57403 12.0321 9.0484 12.0321C9.64692 12.0306 10.223 11.8042 10.6624 11.3977L11.8499 12.4943L11.8577 12.5001L11.8551 12.5021L10.6617 13.6025C10.2227 13.1959 9.64676 12.9695 9.0484 12.9681C8.57403 12.9681 8.1103 13.1088 7.71587 13.3723C7.32144 13.6359 7.01402 14.0105 6.83248 14.4487C6.65094 14.887 6.60344 15.3693 6.69599 15.8345C6.78854 16.2998 7.01697 16.7272 7.35241 17.0626C7.68784 17.398 8.11522 17.6265 8.58048 17.719C9.04574 17.8116 9.528 17.7641 9.96627 17.5825C10.4045 17.401 10.7791 17.0936 11.0427 16.6991C11.3062 16.3047 11.4469 15.841 11.4469 15.3666C11.4469 15.1736 11.4183 14.9883 11.3748 14.8089L13.2234 13.5148L15.9059 15.507C17.3437 16.5139 18.3499 15.0761 18.3499 15.0761L11.3748 10.1913C11.4177 10.0119 11.4469 9.82666 11.4469 9.63361ZM9.0484 10.8036C8.89476 10.8036 8.74261 10.7733 8.60066 10.7145C8.45871 10.6557 8.32973 10.5696 8.22109 10.4609C8.11244 10.3523 8.02626 10.2233 7.96746 10.0813C7.90867 9.9394 7.8784 9.78726 7.8784 9.63361C7.8784 9.47996 7.90867 9.32782 7.96746 9.18587C8.02626 9.04392 8.11244 8.91494 8.22109 8.80629C8.32973 8.69765 8.45871 8.61147 8.60066 8.55267C8.74261 8.49387 8.89476 8.46361 9.0484 8.46361C9.35871 8.46361 9.6563 8.58688 9.87572 8.80629C10.0951 9.02571 10.2184 9.32331 10.2184 9.63361C10.2184 9.94391 10.0951 10.2415 9.87572 10.4609C9.6563 10.6803 9.35871 10.8036 9.0484 10.8036ZM9.0484 16.5366C8.7381 16.5366 8.44051 16.4133 8.22109 16.1939C8.00167 15.9745 7.8784 15.6769 7.8784 15.3666C7.8784 15.0563 8.00167 14.7587 8.22109 14.5393C8.44051 14.3199 8.7381 14.1966 9.0484 14.1966C9.35871 14.1966 9.6563 14.3199 9.87572 14.5393C10.0951 14.7587 10.2184 15.0563 10.2184 15.3666C10.2184 15.6769 10.0951 15.9745 9.87572 16.1939C9.6563 16.4133 9.35871 16.5366 9.0484 16.5366ZM18.3499 9.92481C18.3499 9.92481 17.3437 8.48701 15.9059 9.49386L13.8227 10.9466L15.3528 12.0178L18.3499 9.92481Z" fill="white"/>
</g>
<defs>
<clipPath id="clip0_777_7194">
<rect width="26" height="35" fill="white"/>
</clipPath>
</defs>
</svg>
