<svg width="20" height="20" viewBox="0 0 20 20" fill="none" xmlns="http://www.w3.org/2000/svg">
<g id="solar:cat-bold">
<path id="Vector" fill-rule="evenodd" clip-rule="evenodd" d="M9.79186 5.33829C8.55853 5.33829 8.43519 5.46913 7.79686 5.46913C7.26519 5.46913 5.66853 4.16663 4.87103 4.16663C4.07269 4.16663 3.14186 4.63579 3.14186 5.98996V7.55246C3.14353 7.96246 3.29186 9.21913 3.87519 8.88329C3.18603 9.69829 3.11686 10.6491 3.12603 11.5691C2.94019 11.6225 2.75103 11.6833 2.56686 11.7458C1.99686 11.9408 1.39186 12.1891 1.11936 12.3658C0.98012 12.4557 0.882318 12.5973 0.847468 12.7594C0.812617 12.9215 0.843573 13.0907 0.933526 13.23C1.02348 13.3692 1.16506 13.467 1.32712 13.5019C1.48918 13.5367 1.65845 13.5057 1.79769 13.4158C1.92769 13.3316 2.39853 13.1241 2.97103 12.9283L3.16103 12.8658C3.19936 13.2266 3.29519 13.5575 3.43769 13.8575L3.41769 13.8683C3.07603 14.0483 2.75936 14.2558 2.55769 14.3875L2.46353 14.4491C2.32429 14.5391 2.22648 14.6807 2.19163 14.8427C2.15678 15.0048 2.18774 15.1741 2.27769 15.3133C2.36764 15.4525 2.50923 15.5503 2.67129 15.5852C2.83335 15.62 3.00262 15.5891 3.14186 15.4991L3.25103 15.4275C3.45519 15.2941 3.71686 15.1233 4.00186 14.9733C4.06853 14.9375 4.13269 14.9058 4.19436 14.8766C5.63603 16.2291 8.22519 16.6666 9.79186 16.6666C11.3585 16.6666 13.9477 16.2291 15.3894 14.8766C15.451 14.9058 15.5144 14.9375 15.5819 14.9733C15.8669 15.1233 16.1285 15.2941 16.3327 15.4275L16.4419 15.4991C16.5811 15.5891 16.7504 15.62 16.9124 15.5852C17.0745 15.5503 17.2161 15.4525 17.306 15.3133C17.396 15.1741 17.4269 15.0048 17.3921 14.8427C17.3572 14.6807 17.2594 14.5391 17.1202 14.4491L17.026 14.3875C16.7475 14.2012 16.4606 14.028 16.166 13.8683L16.146 13.8575C16.2885 13.5575 16.3844 13.2266 16.4227 12.8658L16.6127 12.9283C17.1852 13.1241 17.656 13.3316 17.7869 13.4158C17.926 13.5007 18.0929 13.5279 18.2518 13.4915C18.4107 13.4551 18.5491 13.3581 18.6375 13.2211C18.7259 13.0841 18.7573 12.918 18.7249 12.7582C18.6926 12.5984 18.5991 12.4576 18.4644 12.3658C18.1919 12.1891 17.5869 11.9408 17.0177 11.7458C16.8323 11.6826 16.6456 11.6234 16.4577 11.5683C16.4677 10.6483 16.3977 9.69829 15.7077 8.88329C16.291 9.21913 16.441 7.96246 16.4419 7.55163V5.98996C16.4419 4.63579 15.511 4.16663 14.7127 4.16663C13.9152 4.16663 12.3185 5.46913 11.7877 5.46913C11.1485 5.46913 11.0252 5.33829 9.79186 5.33829ZM9.22936 13C9.39769 12.9425 9.59686 12.9166 9.79186 12.9166C9.98686 12.9166 10.186 12.9425 10.3552 13C10.4385 13.0283 10.5385 13.0733 10.6285 13.145C10.6902 13.1915 10.7407 13.2513 10.7762 13.32C10.8117 13.3886 10.8313 13.4644 10.8335 13.5416C10.8335 13.7333 10.7177 13.8666 10.6285 13.9383C10.5394 14.01 10.4377 14.055 10.3552 14.0833C10.1731 14.1409 9.98288 14.1691 9.79186 14.1666C9.60111 14.1691 9.41119 14.141 9.22936 14.0833C9.13025 14.0512 9.03748 14.0022 8.95519 13.9383C8.89349 13.8918 8.84303 13.8319 8.80755 13.7633C8.77207 13.6946 8.75246 13.6189 8.75019 13.5416C8.75019 13.35 8.86603 13.2166 8.95519 13.145C9.04436 13.0733 9.14686 13.0283 9.22936 13ZM11.6002 10.4166C11.7144 10.2266 11.9385 9.99996 12.2752 9.99996C12.6119 9.99996 12.8369 10.2266 12.9502 10.4166C13.0685 10.6158 13.1252 10.8558 13.1252 11.0941C13.1252 11.3316 13.0685 11.5716 12.9502 11.77C12.8369 11.9608 12.6119 12.1875 12.2752 12.1875C11.9385 12.1875 11.7144 11.9608 11.6002 11.7708C11.4824 11.5646 11.422 11.3307 11.4252 11.0933C11.4252 10.8558 11.4819 10.6158 11.6002 10.4175V10.4166ZM6.63353 10.4166C6.74769 10.2266 6.97186 9.99996 7.30853 9.99996C7.64519 9.99996 7.87019 10.2266 7.98353 10.4166C8.10186 10.6158 8.15853 10.8558 8.15853 11.0941C8.15853 11.3316 8.10186 11.5716 7.98353 11.77C7.87019 11.9608 7.64519 12.1875 7.30853 12.1875C6.97186 12.1875 6.74769 11.9608 6.63353 11.7708C6.51577 11.5646 6.45534 11.3307 6.45853 11.0933C6.45853 10.8558 6.51519 10.6158 6.63353 10.4175V10.4166Z" fill="#757575"/>
</g>
</svg>
