<svg width="20" height="20" viewBox="0 0 20 20" fill="none" xmlns="http://www.w3.org/2000/svg">
<g id="fluent:call-20-filled">
<path id="Vector" d="M6.98694 2.0661C7.42452 1.93417 7.89409 1.95609 8.31748 2.12821C8.74087 2.30033 9.09254 2.61227 9.31394 3.0121L9.38794 3.1611L10.0499 4.6321C10.2508 5.07858 10.3161 5.57428 10.2375 6.05754C10.1589 6.54079 9.93997 6.99028 9.60794 7.3501L9.47494 7.4821L8.43194 8.4551C8.24394 8.6331 8.38494 9.3221 9.06494 10.5001C9.67694 11.5601 10.1749 12.0551 10.4199 12.0821H10.4629L10.5159 12.0721L12.5659 11.4451C12.8415 11.3606 13.1355 11.3573 13.4128 11.4355C13.6902 11.5137 13.9392 11.6701 14.1299 11.8861L14.2209 12.0011L15.5779 13.8811C15.8439 14.2496 15.9764 14.6977 15.9537 15.1515C15.931 15.6054 15.7544 16.038 15.4529 16.3781L15.3309 16.5041L14.7889 17.0181C14.3022 17.479 13.6934 17.7905 13.0348 17.9155C12.3763 18.0404 11.6957 17.9737 11.0739 17.7231C9.13894 16.9431 7.38094 15.1611 5.78394 12.3951C4.18394 9.6221 3.51894 7.2051 3.81594 5.1351C3.90581 4.50937 4.16348 3.91966 4.56157 3.4286C4.95967 2.93754 5.48333 2.56346 6.07694 2.3461L6.26994 2.2821L6.98694 2.0661Z" fill="url(#paint0_linear_630_6525)"/>
</g>
<defs>
<linearGradient id="paint0_linear_630_6525" x1="9.85163" y1="1.98096" x2="9.85163" y2="17.9768" gradientUnits="userSpaceOnUse">
<stop stop-color="#696969"/>
<stop offset="0.0001" stop-color="#696969"/>
<stop offset="0.9999" stop-color="#595959"/>
<stop offset="1" stop-color="#454545"/>
</linearGradient>
</defs>
</svg>
