<svg width="15" height="15" viewBox="0 0 15 15" fill="none" xmlns="http://www.w3.org/2000/svg">
<g id="entypo:scissors">
<path id="Vector" d="M6.285 4.19255C6.285 3.64519 6.12269 3.11012 5.81859 2.65501C5.5145 2.1999 5.08227 1.84518 4.57658 1.63571C4.07088 1.42625 3.51443 1.37144 2.97759 1.47823C2.44075 1.58501 1.94763 1.84859 1.56058 2.23563C1.17354 2.62267 0.909963 3.1158 0.803178 3.65264C0.696393 4.18948 0.751199 4.74593 0.960665 5.25163C1.17013 5.75732 1.52485 6.18955 1.97996 6.49364C2.43507 6.79774 2.97014 6.96005 3.5175 6.96005C4.2081 6.95831 4.87281 6.69703 5.37975 6.22805L6.75 7.4933L6.759 7.50005L6.756 7.5023L5.379 8.77205C4.87245 8.30293 4.20791 8.04161 3.5175 8.04005C2.97014 8.04005 2.43507 8.20236 1.97996 8.50646C1.52485 8.81055 1.17013 9.24278 0.960665 9.74847C0.751199 10.2542 0.696393 10.8106 0.803178 11.3475C0.909963 11.8843 1.17354 12.3774 1.56058 12.7645C1.94763 13.1515 2.44075 13.4151 2.97759 13.5219C3.51443 13.6287 4.07088 13.5739 4.57658 13.3644C5.08227 13.1549 5.5145 12.8002 5.81859 12.3451C6.12269 11.89 6.285 11.3549 6.285 10.8075C6.285 10.5848 6.252 10.371 6.20175 10.1641L8.33475 8.6708L11.43 10.9696C13.089 12.1313 14.25 10.4723 14.25 10.4723L6.20175 4.83605C6.25125 4.62905 6.285 4.4153 6.285 4.19255ZM3.5175 5.54255C3.34022 5.54255 3.16467 5.50763 3.00088 5.43979C2.83709 5.37194 2.68827 5.2725 2.56291 5.14714C2.43755 5.02179 2.33811 4.87296 2.27026 4.70917C2.20242 4.54538 2.1675 4.36983 2.1675 4.19255C2.1675 4.01527 2.20242 3.83972 2.27026 3.67593C2.33811 3.51214 2.43755 3.36331 2.56291 3.23796C2.68827 3.1126 2.83709 3.01316 3.00088 2.94531C3.16467 2.87747 3.34022 2.84255 3.5175 2.84255C3.87554 2.84255 4.21892 2.98478 4.4721 3.23796C4.72527 3.49113 4.8675 3.83451 4.8675 4.19255C4.8675 4.55059 4.72527 4.89397 4.4721 5.14714C4.21892 5.40032 3.87554 5.54255 3.5175 5.54255ZM3.5175 12.1575C3.15946 12.1575 2.81608 12.0153 2.56291 11.7621C2.30973 11.509 2.1675 11.1656 2.1675 10.8075C2.1675 10.4495 2.30973 10.1061 2.56291 9.85296C2.81608 9.59978 3.15946 9.45755 3.5175 9.45755C3.87554 9.45755 4.21892 9.59978 4.4721 9.85296C4.72527 10.1061 4.8675 10.4495 4.8675 10.8075C4.8675 11.1656 4.72527 11.509 4.4721 11.7621C4.21892 12.0153 3.87554 12.1575 3.5175 12.1575ZM14.25 4.52855C14.25 4.52855 13.089 2.86955 11.43 4.0313L9.02625 5.70755L10.7918 6.94355L14.25 4.52855Z" fill="#414141"/>
</g>
</svg>
