<svg width="26" height="35" viewBox="0 0 26 35" fill="none" xmlns="http://www.w3.org/2000/svg">
<g clip-path="url(#clip0_777_7189)">
<path d="M26 13.125C26 19.0996 18.0781 29.7363 14.6047 34.125C13.7719 35.1709 12.2281 35.1709 11.3953 34.125C7.92188 29.7363 0 19.0996 0 13.125C0 5.87891 5.82292 0 13 0C20.1771 0 26 5.87891 26 13.125Z" fill="#333333"/>
<path d="M15.62 7.82007H8.34002V14.8401C8.34002 15.4121 8.80802 15.8801 9.38002 15.8801H14.58C15.152 15.8801 15.62 15.4121 15.62 14.8401V13.5401C17.1998 13.5401 18.48 12.2596 18.48 10.6801C18.48 9.10057 17.1998 7.82007 15.62 7.82007ZM15.62 12.2401V9.12007C16.0338 9.12007 16.4305 9.28443 16.7231 9.57698C17.0157 9.86954 17.18 10.2663 17.18 10.6801C17.18 11.0938 17.0157 11.4906 16.7231 11.7832C16.4305 12.0757 16.0338 12.2401 15.62 12.2401ZM6.52002 16.4001V16.9983C6.52002 17.4913 7.05796 17.7001 7.71602 17.7001H17.284C17.9418 17.7001 18.48 17.4913 18.48 16.9983V16.4001H6.52002Z" fill="white"/>
</g>
<defs>
<clipPath id="clip0_777_7189">
<rect width="26" height="35" fill="white"/>
</clipPath>
</defs>
</svg>
