<svg width="15" height="15" viewBox="0 0 15 15" fill="none" xmlns="http://www.w3.org/2000/svg">
<g id="material-symbols:local-hospital">
<path id="Vector" d="M6.5625 10.625H8.4375V8.4375H10.625V6.5625H8.4375V4.375H6.5625V6.5625H4.375V8.4375H6.5625V10.625ZM3.125 13.125C2.78125 13.125 2.48688 13.0025 2.24188 12.7575C1.99688 12.5125 1.87458 12.2183 1.875 11.875V3.125C1.875 2.78125 1.9975 2.48688 2.2425 2.24188C2.4875 1.99688 2.78167 1.87458 3.125 1.875H11.875C12.2188 1.875 12.5131 1.9975 12.7581 2.2425C13.0031 2.4875 13.1254 2.78167 13.125 3.125V11.875C13.125 12.2188 13.0025 12.5131 12.7575 12.7581C12.5125 13.0031 12.2183 13.1254 11.875 13.125H3.125Z" fill="white"/>
</g>
</svg>
